<svg xmlns="http://www.w3.org/2000/svg" fill="none" viewBox="0 0 10 10" width="500" height="500">
  <style>
    <![CDATA[
      path.b {
        fill:   hsl(0, 0%, 100%);
      }
      path.g1 {
        fill:   hsl(0, 0%, 93%);
      }
      path.g2 {
        fill:   hsl(0, 0%, 80%);
      }
      path.g3 {
        fill:   hsl(0, 0%, 73%);
      }
      path.g4 {
        fill:   hsl(0, 0%, 67%);
      }
    ]]>
  </style>
  <defs>
    <linearGradient id="a" gradientTransform="rotate(90)">
      <stop offset="0%" stop-color="transparent"/>
      <stop offset="85%" stop-color="#fff"/>
    </linearGradient>
  </defs>
  <path class="g1" d="m0 0 .5.87L1 0H0"/>
  <path class="g2" d="m0 0 .5.87h-1L0 0"/>
  <path class="g3" d="m1 0 .5.87L2 0H1"/>
  <path class="g1" d="m1 0 .5.87h-1L1 0"/>
  <path class="g3" d="m2 0 .5.87L3 0H2"/>
  <path class="g3" d="m2 0 .5.87h-1L2 0"/>
  <path class="g1" d="m3 0 .5.87L4 0H3"/>
  <path class="g2" d="m3 0 .5.87h-1L3 0"/>
  <path class="g4" d="m4 0 .5.87L5 0H4"/>
  <path class="b" d="m4 0 .5.87h-1L4 0"/>
  <path class="g1" d="m5 0 .5.87L6 0H5"/>
  <path class="g4" d="m5 0 .5.87h-1L5 0"/>
  <path class="g1" d="m6 0 .5.87L7 0H6"/>
  <path class="g4" d="m6 0 .5.87h-1L6 0m1 0 .5.87L8 0H7"/>
  <path class="g1" d="m7 0 .5.87h-1L7 0"/>
  <path class="g4" d="m8 0 .5.87L9 0H8"/>
  <path class="b" d="m8 0 .5.87h-1L8 0"/>
  <path class="g1" d="m9 0 .5.87L10 0H9"/>
  <path class="g3" d="m9 0 .5.87h-1L9 0"/>
  <path class="g1" d="m10 0 .5.87L11 0h-1"/>
  <path class="g2" d="m10 0 .5.87h-1L10 0"/>
  <path class="g4" d="m.5.87.5.87.5-.87h-1"/>
  <path class="g2" d="m.5.87.5.87H0L.5.87"/>
  <path class="g3" d="m1.5.87.5.87.5-.87h-1"/>
  <path class="g3" d="m1.5.87.5.87H1l.5-.87m1 0 .5.87.5-.87h-1"/>
  <path class="g1" d="m2.5.87.5.87H2l.5-.87m1 0 .5.87.5-.87h-1"/>
  <path class="g1" d="m3.5.87.5.87H3l.5-.87"/>
  <path class="b" d="m4.5.87.5.87.5-.87h-1"/>
  <path class="g3" d="m4.5.87.5.87H4l.5-.87"/>
  <path class="g4" d="m5.5.87.5.87.5-.87h-1"/>
  <path class="g1" d="m5.5.87.5.87H5l.5-.87"/>
  <path class="g4" d="m6.5.87.5.87.5-.87h-1"/>
  <path class="g2" d="m6.5.87.5.87H6l.5-.87"/>
  <path class="g3" d="m7.5.87.5.87.5-.87h-1"/>
  <path class="g3" d="m7.5.87.5.87H7l.5-.87"/>
  <path class="g1" d="m8.5.87.5.87.5-.87h-1"/>
  <path class="g1" d="m8.5.87.5.87H8l.5-.87"/>
  <path class="g3" d="m9.5.87.5.87.5-.87h-1"/>
  <path class="g1" d="m9.5.87.5.87H9l.5-.87"/>
  <path class="g4" d="m10.5.87.5.87.5-.87h-1"/>
  <path class="g3" d="m10.5.87.5.87h-1l.5-.87M0 .87h.5l-.5.87V.87"/>
  <path class="g1" d="m0 1.74.5.87.5-.87H0"/>
  <path class="g1" d="m0 1.74.5.87h-1l.5-.87m1 0 .5.87.5-.87H1"/>
  <path class="g1" d="m1 1.74.5.87h-1l.5-.87"/>
  <path class="g2" d="m2 1.74.5.87.5-.87H2"/>
  <path class="b" d="m2 1.74.5.87h-1l.5-.87"/>
  <path class="g3" d="m3 1.74.5.87.5-.87H3"/>
  <path class="g2" d="m3 1.74.5.87h-1l.5-.87m1 0 .5.87.5-.87H4"/>
  <path class="g3" d="m4 1.74.5.87h-1l.5-.87m1 0 .5.87.5-.87H5"/>
  <path class="g3" d="m5 1.74.5.87h-1l.5-.87m1 0 .5.87.5-.87H6"/>
  <path class="g2" d="m6 1.74.5.87h-1l.5-.87"/>
  <path class="g3" d="m7 1.74.5.87.5-.87H7"/>
  <path class="g4" d="m7 1.74.5.87h-1l.5-.87m1 0 .5.87.5-.87H8"/>
  <path class="g1" d="m8 1.74.5.87h-1l.5-.87"/>
  <path class="g2" d="m9 1.74.5.87.5-.87H9"/>
  <path class="g3" d="m9 1.74.5.87h-1l.5-.87"/>
  <path class="g1" d="m10 1.74.5.87.5-.87h-1"/>
  <path class="g1" d="m10 1.74.5.87h-1l.5-.87"/>
  <path class="g2" d="m.5 2.61.5.87.5-.87h-1"/>
  <path class="b" d="m.5 2.61.5.87H0l.5-.87"/>
  <path class="g2" d="m1.5 2.61.5.87.5-.87h-1"/>
  <path class="g4" d="m1.5 2.61.5.87H1l.5-.87m1 0 .5.87.5-.87h-1"/>
  <path class="g1" d="m2.5 2.61.5.87H2l.5-.87"/>
  <path class="g4" d="m3.5 2.61.5.87.5-.87h-1"/>
  <path class="g2" d="m3.5 2.61.5.87H3l.5-.87"/>
  <path class="b" d="m4.5 2.61.5.87.5-.87h-1"/>
  <path class="g2" d="m4.5 2.61.5.87H4l.5-.87"/>
  <path class="g3" d="m5.5 2.61.5.87.5-.87h-1"/>
  <path class="g4" d="m5.5 2.61.5.87H5l.5-.87"/>
  <path class="g3" d="m6.5 2.61.5.87.5-.87h-1"/>
  <path class="g2" d="m6.5 2.61.5.87H6l.5-.87"/>
  <path class="g4" d="m7.5 2.61.5.87.5-.87h-1"/>
  <path class="g2" d="m7.5 2.61.5.87H7l.5-.87"/>
  <path class="g4" d="m8.5 2.61.5.87.5-.87h-1"/>
  <path class="g4" d="m8.5 2.61.5.87H8l.5-.87"/>
  <path class="g2" d="m9.5 2.61.5.87.5-.87h-1"/>
  <path class="g2" d="m9.5 2.61.5.87H9l.5-.87"/>
  <path class="g1" d="m10.5 2.61.5.87.5-.87h-1"/>
  <path class="g4" d="m10.5 2.61.5.87h-1l.5-.87"/>
  <path class="g2" d="M0 2.61h.5l-.5.87v-.87"/>
  <path class="g1" d="m0 3.48.5.87.5-.87H0"/>
  <path class="g2" d="m0 3.48.5.87h-1l.5-.87"/>
  <path class="g1" d="m1 3.48.5.87.5-.87H1"/>
  <path class="g4" d="m1 3.48.5.87h-1l.5-.87"/>
  <path class="g1" d="m2 3.48.5.87.5-.87H2"/>
  <path class="g4" d="m2 3.48.5.87h-1l.5-.87"/>
  <path class="g3" d="m3 3.48.5.87.5-.87H3"/>
  <path class="g2" d="m3 3.48.5.87h-1l.5-.87"/>
  <path class="g1" d="m4 3.48.5.87.5-.87H4"/>
  <path class="g3" d="m4 3.48.5.87h-1l.5-.87"/>
  <path class="g1" d="m5 3.48.5.87.5-.87H5"/>
  <path class="g1" d="m5 3.48.5.87h-1l.5-.87"/>
  <path class="g2" d="m6 3.48.5.87.5-.87H6"/>
  <path class="g4" d="m6 3.48.5.87h-1l.5-.87"/>
  <path class="g1" d="m7 3.48.5.87.5-.87H7"/>
  <path class="g2" d="m7 3.48.5.87h-1l.5-.87"/>
  <path class="g1" d="m8 3.48.5.87.5-.87H8"/>
  <path class="b" d="m8 3.48.5.87h-1l.5-.87"/>
  <path class="g4" d="m9 3.48.5.87.5-.87H9"/>
  <path class="g1" d="m9 3.48.5.87h-1l.5-.87"/>
  <path class="g4" d="m10 3.48.5.87.5-.87h-1"/>
  <path class="g2" d="m10 3.48.5.87h-1l.5-.87"/>
  <path class="g3" d="m.5 4.35.5.87.5-.87h-1"/>
  <path class="g1" d="m.5 4.35.5.87H0l.5-.87"/>
  <path class="g2" d="m1.5 4.35.5.87.5-.87h-1"/>
  <path class="g2" d="m1.5 4.35.5.87H1l.5-.87m1 0 .5.87.5-.87h-1"/>
  <path class="g2" d="m2.5 4.35.5.87H2l.5-.87"/>
  <path class="g3" d="m3.5 4.35.5.87.5-.87h-1"/>
  <path class="g4" d="m3.5 4.35.5.87H3l.5-.87"/>
  <path class="g1" d="m4.5 4.35.5.87.5-.87h-1"/>
  <path class="g3" d="m4.5 4.35.5.87H4l.5-.87"/>
  <path class="g2" d="m5.5 4.35.5.87.5-.87h-1"/>
  <path class="b" d="m5.5 4.35.5.87H5l.5-.87"/>
  <path class="g4" d="m6.5 4.35.5.87.5-.87h-1"/>
  <path class="g2" d="m6.5 4.35.5.87H6l.5-.87"/>
  <path class="g4" d="m7.5 4.35.5.87.5-.87h-1"/>
  <path class="g4" d="m7.5 4.35.5.87H7l.5-.87"/>
  <path class="g1" d="m8.5 4.35.5.87.5-.87h-1"/>
  <path class="g4" d="m8.5 4.35.5.87H8l.5-.87"/>
  <path class="g1" d="m9.5 4.35.5.87.5-.87h-1"/>
  <path class="g1" d="m9.5 4.35.5.87H9l.5-.87m1 0 .5.87.5-.87h-1"/>
  <path class="g3" d="m10.5 4.35.5.87h-1l.5-.87"/>
  <path class="g1" d="M0 4.35h.5l-.5.87v-.87m0 .87.5.87.5-.87H0"/>
  <path class="g2" d="m0 5.22.5.87h-1l.5-.87"/>
  <path class="b" d="m1 5.22.5.87.5-.87H1"/>
  <path class="g4" d="m1 5.22.5.87h-1l.5-.87"/>
  <path class="g3" d="m2 5.22.5.87.5-.87H2"/>
  <path class="g2" d="m2 5.22.5.87h-1l.5-.87"/>
  <path class="g1" d="m3 5.22.5.87.5-.87H3"/>
  <path class="g2" d="m3 5.22.5.87h-1l.5-.87"/>
  <path class="g3" d="m4 5.22.5.87.5-.87H4"/>
  <path class="g1" d="m4 5.22.5.87h-1l.5-.87"/>
  <path class="g2" d="m5 5.22.5.87.5-.87H5"/>
  <path class="g3" d="m5 5.22.5.87h-1l.5-.87"/>
  <path class="g1" d="m6 5.22.5.87.5-.87H6"/>
  <path class="g4" d="m6 5.22.5.87h-1l.5-.87m1 0 .5.87.5-.87H7"/>
  <path class="g1" d="m7 5.22.5.87h-1l.5-.87"/>
  <path class="g4" d="m8 5.22.5.87.5-.87H8"/>
  <path class="g2" d="m8 5.22.5.87h-1l.5-.87"/>
  <path class="g1" d="m9 5.22.5.87.5-.87H9"/>
  <path class="g2" d="m9 5.22.5.87h-1l.5-.87"/>
  <path class="g3" d="m10 5.22.5.87.5-.87h-1"/>
  <path class="g2" d="m10 5.22.5.87h-1l.5-.87"/>
  <path class="g3" d="m.5 6.09.5.87.5-.87h-1"/>
  <path class="g4" d="m.5 6.09.5.87H0l.5-.87"/>
  <path class="g2" d="m1.5 6.09.5.87.5-.87h-1"/>
  <path class="g1" d="m1.5 6.09.5.87H1l.5-.87"/>
  <path class="g4" d="m2.5 6.09.5.87.5-.87h-1"/>
  <path class="g4" d="m2.5 6.09.5.87H2l.5-.87"/>
  <path class="g3" d="m3.5 6.09.5.87.5-.87h-1"/>
  <path class="g2" d="m3.5 6.09.5.87H3l.5-.87"/>
  <path class="g4" d="m4.5 6.09.5.87.5-.87h-1"/>
  <path class="g4" d="m4.5 6.09.5.87H4l.5-.87"/>
  <path class="g1" d="m5.5 6.09.5.87.5-.87h-1"/>
  <path class="g1" d="m5.5 6.09.5.87H5l.5-.87m1 0 .5.87.5-.87h-1"/>
  <path class="g3" d="m6.5 6.09.5.87H6l.5-.87m1 0 .5.87.5-.87h-1"/>
  <path class="g4" d="m7.5 6.09.5.87H7l.5-.87"/>
  <path class="g3" d="m8.5 6.09.5.87.5-.87h-1"/>
  <path class="g4" d="m8.5 6.09.5.87H8l.5-.87"/>
  <path class="g3" d="m9.5 6.09.5.87.5-.87h-1"/>
  <path class="g2" d="m9.5 6.09.5.87H9l.5-.87"/>
  <path class="g4" d="m10.5 6.09.5.87.5-.87h-1"/>
  <path class="g2" d="m10.5 6.09.5.87h-1l.5-.87"/>
  <path class="g3" d="M0 6.09h.5l-.5.87v-.87m0 .87.5.87.5-.87H0"/>
  <path class="g3" d="m0 6.96.5.87h-1l.5-.87"/>
  <path class="g1" d="m1 6.96.5.87.5-.87H1"/>
  <path class="g2" d="m1 6.96.5.87h-1l.5-.87"/>
  <path class="g4" d="m2 6.96.5.87.5-.87H2"/>
  <path class="b" d="m2 6.96.5.87h-1l.5-.87"/>
  <path class="g1" d="m3 6.96.5.87.5-.87H3"/>
  <path class="g2" d="m3 6.96.5.87h-1l.5-.87"/>
  <path class="g1" d="m4 6.96.5.87.5-.87H4"/>
  <path class="g3" d="m4 6.96.5.87h-1l.5-.87"/>
  <path class="g2" d="m5 6.96.5.87.5-.87H5"/>
  <path class="g1" d="m5 6.96.5.87h-1l.5-.87"/>
  <path class="g4" d="m6 6.96.5.87.5-.87H6"/>
  <path class="g4" d="m6 6.96.5.87h-1l.5-.87m1 0 .5.87.5-.87H7"/>
  <path class="g2" d="m7 6.96.5.87h-1l.5-.87"/>
  <path class="g1" d="m8 6.96.5.87.5-.87H8"/>
  <path class="g4" d="m8 6.96.5.87h-1l.5-.87m1 0 .5.87.5-.87H9"/>
  <path class="g1" d="m9 6.96.5.87h-1l.5-.87"/>
  <path class="g2" d="m10 6.96.5.87.5-.87h-1"/>
  <path class="g3" d="m10 6.96.5.87h-1l.5-.87"/>
  <path class="g2" d="m.5 7.83.5.87.5-.87h-1"/>
  <path class="g3" d="m.5 7.83.5.87H0l.5-.87"/>
  <path class="g1" d="m1.5 7.83.5.87.5-.87h-1"/>
  <path class="b" d="m1.5 7.83.5.87H1l.5-.87"/>
  <path class="g1" d="m2.5 7.83.5.87.5-.87h-1"/>
  <path class="g3" d="m2.5 7.83.5.87H2l.5-.87"/>
  <path class="b" d="m3.5 7.83.5.87.5-.87h-1"/>
  <path class="g3" d="m3.5 7.83.5.87H3l.5-.87m1 0 .5.87.5-.87h-1"/>
  <path class="g3" d="m4.5 7.83.5.87H4l.5-.87"/>
  <path class="g2" d="m5.5 7.83.5.87.5-.87h-1"/>
  <path class="g1" d="m5.5 7.83.5.87H5l.5-.87"/>
  <path class="g4" d="m6.5 7.83.5.87.5-.87h-1"/>
  <path class="g2" d="m6.5 7.83.5.87H6l.5-.87"/>
  <path class="g3" d="m7.5 7.83.5.87.5-.87h-1"/>
  <path class="g2" d="m7.5 7.83.5.87H7l.5-.87"/>
  <path class="g3" d="m8.5 7.83.5.87.5-.87h-1"/>
  <path class="g3" d="m8.5 7.83.5.87H8l.5-.87"/>
  <path class="g2" d="m9.5 7.83.5.87.5-.87h-1"/>
  <path class="g3" d="m9.5 7.83.5.87H9l.5-.87"/>
  <path class="g1" d="m10.5 7.83.5.87.5-.87h-1"/>
  <path class="g4" d="m10.5 7.83.5.87h-1l.5-.87"/>
  <path class="g2" d="M0 7.83h.5L0 8.7v-.87"/>
  <path fill="url(#a)" d="M0 0h10v10H0z"/>
</svg>
